# xmcd
#
# Track frame offsets: 
#        182
#        25790
#        50055
#        84057
#        114617
#        143867
#
# Disc length: 2247 seconds
#
# Revision: 1
# Processed by: cddbd v1.5.2PL0 Copyright (c) Steve Scherf et al.
# Submitted via: ExactAudioCopy v0.99pb3
#
DISCID=4608c506
DTITLE=Logg - Logg
DYEAR=1981
DGENRE=Disco
TTITLE0=You've Got That Something
TTITLE1=Dancing Into The Stars
TTITLE2=Something Else
TTITLE3=I Know You Will
TTITLE4=Lay It On The Line
TTITLE5=Sweet To Me
EXTD=
EXTT0=
EXTT1=
EXTT2=
EXTT3=
EXTT4=
EXTT5=
PLAYORDER=
